<?xml version="1.0" standalone="no"?><!DOCTYPE svg PUBLIC "-//W3C//DTD SVG 1.1//EN" "http://www.w3.org/Graphics/SVG/1.1/DTD/svg11.dtd"><svg height="1600" node-id="1" sillyvg="true" template-height="1600" template-width="1600" version="1.1" viewBox="0 0 1600 1600" width="1600" xmlns="http://www.w3.org/2000/svg" xmlns:xlink="http://www.w3.org/1999/xlink"><defs node-id="16"></defs><path d="M 0.00 0.00 L 1600.00 0.00 L 1600.00 1600.00 L 0.00 1600.00 Z" fill="#ffffff" fill-rule="nonzero" node-id="18" stroke="none" target-height="1600" target-width="1600" target-x="0" target-y="0"></path><path d="M 424.91 665.88 C 450.12 661.76 481.04 660.70 513.84 661.20 C 579.20 662.22 653.64 669.57 706.01 672.03 C 738.80 672.02 778.99 670.66 821.57 669.21 C 864.16 667.75 909.10 666.21 951.16 665.86 C 993.20 665.50 1032.52 666.34 1063.86 669.68 C 1079.53 671.35 1093.35 673.66 1104.58 676.81 C 1115.68 679.93 1124.86 684.03 1130.67 689.68 C 1148.26 706.80 1158.77 737.31 1164.64 772.71 C 1170.55 808.37 1171.93 850.06 1170.45 890.64 C 1168.98 931.23 1164.63 970.89 1159.03 1002.53 C 1156.23 1018.35 1153.11 1032.24 1149.84 1043.28 C 1146.64 1054.11 1143.12 1062.84 1139.28 1067.79 C 1137.05 1070.67 1133.80 1072.95 1130.11 1074.81 C 1126.38 1076.69 1121.89 1078.30 1116.86 1079.68 C 1106.81 1082.44 1094.08 1084.45 1079.72 1085.91 C 1050.97 1088.82 1015.02 1089.56 979.50 1089.26 C 943.95 1088.97 908.70 1087.63 881.29 1086.37 C 854.23 1085.13 835.18 1083.98 830.60 1083.94 C 830.55 1083.97 830.48 1084.03 830.38 1084.10 C 829.90 1084.50 829.20 1085.28 828.33 1086.64 C 826.57 1089.36 824.68 1093.49 822.65 1098.86 C 818.57 1109.59 814.42 1123.81 809.66 1138.55 C 804.97 1153.06 799.72 1167.98 793.56 1179.32 C 790.49 1184.99 787.04 1190.05 783.11 1193.74 C 779.15 1197.46 774.38 1200.09 768.81 1200.09 C 764.01 1200.09 759.04 1197.41 754.50 1194.12 C 749.75 1190.68 744.57 1185.88 739.16 1180.33 C 728.35 1169.21 716.12 1154.46 704.14 1139.94 C 692.08 1125.33 680.27 1110.95 670.09 1100.25 C 665.00 1094.89 660.46 1090.62 656.62 1087.73 C 654.70 1086.29 653.07 1085.29 651.73 1084.67 C 650.35 1084.03 649.56 1083.92 649.23 1083.93 C 628.53 1084.55 603.63 1086.61 577.07 1088.71 C 550.57 1090.80 522.48 1092.94 495.64 1093.66 C 468.82 1094.38 443.03 1093.71 421.16 1090.12 C 399.44 1086.55 380.76 1079.99 368.97 1068.27 C 366.64 1065.95 364.92 1062.40 363.55 1058.57 C 362.13 1054.58 360.86 1049.63 359.73 1043.94 C 357.45 1032.56 355.60 1017.76 354.15 1000.75 C 351.25 966.72 349.90 923.41 350.01 880.08 C 350.12 836.75 351.69 793.27 354.64 758.88 C 356.12 741.70 357.95 726.69 360.15 715.06 C 361.24 709.25 362.45 704.19 363.77 700.08 C 365.06 696.11 366.62 692.52 368.65 690.07 C 379.39 677.16 400.03 669.94 424.91 665.88 Z M 513.68 671.20 C 481.09 670.70 450.85 671.77 426.52 675.75 C 401.85 679.77 384.55 686.59 376.34 696.47 C 375.57 697.39 374.48 699.47 373.29 703.16 C 372.14 706.72 371.03 711.33 369.97 716.92 C 367.87 728.07 366.07 742.71 364.61 759.74 C 361.68 793.77 360.12 836.95 360.01 880.10 C 359.90 923.26 361.24 966.25 364.12 999.90 C 365.55 1016.74 367.36 1031.13 369.53 1041.98 C 370.62 1047.42 371.77 1051.85 372.97 1055.21 C 374.23 1058.72 375.33 1060.50 376.02 1061.18 C 385.56 1070.66 401.68 1076.79 422.78 1080.25 C 443.73 1083.69 468.79 1084.38 495.37 1083.66 C 521.91 1082.95 549.76 1080.84 576.28 1078.74 C 602.73 1076.65 627.93 1074.56 648.93 1073.94 C 651.39 1073.86 653.79 1074.59 655.94 1075.59 C 658.13 1076.61 660.37 1078.05 662.62 1079.74 C 667.12 1083.11 672.11 1087.85 677.34 1093.36 C 687.82 1104.37 699.88 1119.07 711.85 1133.58 C 723.90 1148.18 735.85 1162.59 746.33 1173.36 C 751.57 1178.74 756.30 1183.07 760.37 1186.02 C 764.64 1189.11 767.38 1190.09 768.81 1190.09 C 771.01 1190.09 773.47 1189.08 776.26 1186.45 C 779.10 1183.79 781.94 1179.77 784.77 1174.55 C 790.44 1164.12 795.45 1150.00 800.14 1135.47 C 804.76 1121.17 809.11 1106.35 813.30 1095.31 C 815.39 1089.79 817.58 1084.85 819.92 1081.22 C 821.09 1079.40 822.45 1077.68 824.04 1076.38 C 825.65 1075.05 827.78 1073.94 830.35 1073.94 C 834.72 1073.94 854.60 1075.13 881.75 1076.38 C 909.10 1077.64 944.21 1078.97 979.58 1079.26 C 1014.99 1079.56 1050.51 1078.82 1078.71 1075.96 C 1092.82 1074.53 1104.94 1072.58 1114.22 1070.03 C 1118.85 1068.76 1122.66 1067.37 1125.61 1065.88 C 1128.59 1064.38 1130.40 1062.92 1131.38 1061.66 C 1133.96 1058.33 1137.06 1051.22 1140.25 1040.44 C 1143.38 1029.87 1146.43 1016.37 1149.19 1000.79 C 1154.70 969.63 1159.00 930.43 1160.46 890.27 C 1161.92 850.09 1160.54 809.12 1154.77 774.34 C 1148.96 739.30 1138.85 711.59 1123.70 696.85 C 1119.71 692.97 1112.49 689.42 1101.88 686.44 C 1091.39 683.50 1078.19 681.26 1062.80 679.62 C 1032.05 676.34 993.18 675.50 951.24 675.85 C 909.34 676.21 864.53 677.75 821.91 679.20 C 779.33 680.66 738.90 682.03 705.88 682.03 L 705.77 682.03 L 705.65 682.02 C 652.31 679.52 579.07 672.22 513.68 671.20 Z M 536.00 841.09 C 560.30 841.09 580.00 861.23 580.00 886.09 C 580.00 910.94 560.30 931.09 536.00 931.09 C 511.70 931.09 492.00 910.94 492.00 886.09 C 492.00 861.23 511.70 841.09 536.00 841.09 Z M 735.50 841.09 C 760.08 841.09 780.00 861.23 780.00 886.09 C 780.00 910.94 760.08 931.09 735.50 931.09 C 710.92 931.09 691.00 910.94 691.00 886.09 C 691.00 861.23 710.92 841.09 735.50 841.09 Z M 966.00 841.09 C 990.30 841.09 1010.00 861.23 1010.00 886.09 C 1010.00 910.94 990.30 931.09 966.00 931.09 C 941.70 931.09 922.00 910.94 922.00 886.09 C 922.00 861.23 941.70 841.09 966.00 841.09 Z M 966.00 851.09 C 947.43 851.09 932.00 866.54 932.00 886.09 C 932.00 905.63 947.43 921.09 966.00 921.09 C 984.57 921.09 1000.00 905.63 1000.00 886.09 C 1000.00 866.54 984.57 851.09 966.00 851.09 Z M 536.00 851.09 C 517.43 851.09 502.00 866.54 502.00 886.09 C 502.00 905.63 517.43 921.09 536.00 921.09 C 554.57 921.09 570.00 905.63 570.00 886.09 C 570.00 866.54 554.57 851.09 536.00 851.09 Z M 735.50 851.09 C 716.55 851.09 701.00 866.65 701.00 886.09 C 701.00 905.52 716.55 921.09 735.50 921.09 C 754.45 921.09 770.00 905.52 770.00 886.09 C 770.00 866.65 754.45 851.09 735.50 851.09 Z" fill="#000000" fill-rule="nonzero" node-id="20" stroke="none" target-height="539.39496" target-width="822.03406" target-x="349.896" target-y="660.695"></path><path d="M 594.80 290.28 L 595.26 290.32 L 595.72 290.38 C 600.60 290.98 608.40 293.25 617.50 296.35 C 627.08 299.62 638.58 303.98 650.64 308.85 C 671.36 317.21 693.90 327.14 711.40 335.71 C 727.49 332.54 744.25 330.87 761.45 330.87 C 779.73 330.87 797.50 332.76 814.51 336.32 C 831.60 327.94 853.17 318.38 873.04 310.28 C 884.99 305.41 896.39 301.05 905.87 297.78 C 914.89 294.68 922.63 292.41 927.47 291.80 L 927.93 291.75 L 928.38 291.71 C 929.90 291.62 931.28 291.90 932.52 292.43 C 934.45 292.53 936.30 294.16 938.06 297.02 C 938.21 297.22 938.36 297.41 938.50 297.61 C 940.81 300.85 942.80 305.33 944.56 310.43 C 948.12 320.71 951.20 334.91 953.83 350.47 C 958.92 380.67 962.44 416.91 964.20 442.00 C 977.55 466.64 985.01 494.13 985.01 523.11 C 985.01 629.27 884.92 715.34 761.45 715.34 C 637.98 715.34 537.89 629.27 537.89 523.11 C 537.89 491.82 546.58 462.27 562.01 436.17 C 563.76 411.54 566.50 378.35 570.58 350.23 C 572.87 334.41 575.62 319.95 578.92 309.46 C 580.56 304.27 582.45 299.69 584.69 296.38 C 586.73 293.37 590.06 290.01 594.80 290.28 Z" fill="#000000" fill-rule="nonzero" node-id="22" stroke="none" target-height="425.331" target-width="447.12396" target-x="537.889" target-y="290.01"></path><g node-id="47"><path d="M 598.84 325.17 C 615.47 334.98 655.95 360.31 647.92 365.23 C 624.12 379.81 590.71 407.52 585.16 414.50 C 579.62 421.49 588.49 329.58 598.84 325.17 Z M 925.49 325.17 C 935.84 329.58 944.71 421.49 939.16 414.50 C 933.62 407.52 900.21 379.81 876.41 365.23 C 868.38 360.31 908.86 334.98 925.49 325.17 Z" fill="#ffffff" fill-opacity="0.2" fill-rule="nonzero" group-id="1" node-id="26" stroke="none" target-height="96.31604" target-width="365.089" target-x="579.62" target-y="325.172"></path></g><path d="M 649.56 677.07 C 649.56 709.60 614.18 719.53 570.53 719.53 C 526.89 719.53 491.50 709.60 491.50 677.07 C 491.50 644.53 526.89 611.31 570.53 611.31 C 614.18 611.31 649.56 644.53 649.56 677.07 Z" fill="#000000" fill-rule="nonzero" node-id="29" stroke="none" target-height="108.22095" target-width="158.06" target-x="491.503" target-y="611.311"></path><path d="M 1041.50 674.36 C 1041.50 706.89 1006.12 716.83 962.48 716.83 C 918.83 716.83 883.45 706.89 883.45 674.36 C 883.45 641.83 918.83 608.61 962.48 608.61 C 1006.12 608.61 1041.50 641.83 1041.50 674.36 Z" fill="#000000" fill-rule="nonzero" node-id="31" stroke="none" target-height="108.222046" target-width="158.055" target-x="883.445" target-y="608.605"></path><path d="M 570.53 606.31 C 593.62 606.31 614.53 615.09 629.69 628.21 C 644.79 641.27 654.56 659.00 654.56 677.07 C 654.56 686.16 652.07 693.93 647.40 700.36 C 642.77 706.74 636.21 711.51 628.50 715.04 C 613.21 722.05 592.58 724.53 570.53 724.53 C 548.49 724.53 527.86 722.05 512.57 715.04 C 504.86 711.51 498.30 706.74 493.67 700.36 C 489.00 693.93 486.50 686.16 486.50 677.07 C 486.50 659.00 496.28 641.27 511.38 628.21 C 526.54 615.09 547.44 606.31 570.53 606.31 Z M 962.48 603.61 C 985.57 603.61 1006.47 612.39 1021.63 625.50 C 1036.73 638.57 1046.50 656.29 1046.50 674.36 C 1046.50 683.46 1044.01 691.23 1039.34 697.66 C 1034.71 704.03 1028.15 708.81 1020.44 712.34 C 1005.15 719.34 984.52 721.83 962.48 721.83 C 940.43 721.83 919.80 719.34 904.51 712.34 C 896.80 708.81 890.24 704.03 885.61 697.66 C 880.94 691.23 878.45 683.46 878.45 674.36 C 878.45 656.29 888.22 638.57 903.32 625.50 C 918.48 612.39 939.38 603.61 962.48 603.61 Z M 570.53 611.31 C 526.89 611.31 491.50 644.53 491.50 677.07 L 491.51 677.82 C 492.05 709.25 526.13 719.22 568.49 719.52 L 570.53 719.53 C 613.84 719.53 649.01 709.75 649.56 677.82 L 649.56 677.07 C 649.56 644.79 614.73 611.83 571.55 611.32 L 570.53 611.31 Z M 962.48 608.61 C 918.83 608.61 883.45 641.83 883.45 674.36 L 883.45 675.12 C 883.99 706.54 918.07 716.51 960.44 716.82 L 962.48 716.83 C 1005.78 716.83 1040.95 707.05 1041.50 675.12 L 1041.50 674.36 C 1041.50 642.08 1006.67 609.12 963.50 608.61 L 962.48 608.61 Z" fill="#ffffff" fill-rule="nonzero" node-id="33" stroke="none" target-height="120.926025" target-width="559.9971" target-x="486.50296" target-y="603.605"></path><path d="M 538.45 671.79 C 538.87 670.19 540.50 669.22 542.11 669.63 C 543.71 670.05 544.68 671.68 544.26 673.29 C 543.38 676.70 542.58 682.37 543.07 688.07 C 543.56 693.83 545.32 699.08 549.03 702.32 C 550.28 703.41 550.40 705.31 549.31 706.55 C 548.22 707.80 546.33 707.93 545.08 706.84 C 539.67 702.11 537.64 695.01 537.09 688.59 C 536.53 682.10 537.43 675.74 538.45 671.79 Z M 586.13 666.19 C 586.50 664.57 588.11 663.55 589.72 663.92 C 591.34 664.28 592.35 665.89 591.99 667.50 C 590.98 671.99 590.17 679.22 591.02 686.13 C 591.89 693.12 594.36 699.04 599.18 702.03 C 600.59 702.90 601.03 704.75 600.16 706.16 C 599.28 707.57 597.43 708.00 596.03 707.13 C 588.89 702.71 586.02 694.51 585.07 686.86 C 584.11 679.13 585.01 671.19 586.13 666.19 Z M 994.48 668.36 C 996.08 667.94 997.72 668.91 998.13 670.51 C 999.15 674.46 1000.05 680.82 999.50 687.31 C 998.95 693.74 996.91 700.83 991.51 705.56 C 990.26 706.65 988.36 706.52 987.27 705.28 C 986.18 704.03 986.31 702.14 987.55 701.04 C 991.26 697.80 993.03 692.55 993.52 686.79 C 994.01 681.09 993.20 675.42 992.32 672.01 C 991.91 670.41 992.87 668.77 994.48 668.36 Z M 946.87 662.64 C 948.48 662.28 950.09 663.29 950.45 664.91 C 951.58 669.91 952.47 677.85 951.52 685.59 C 950.57 693.23 947.70 701.43 940.56 705.85 C 939.15 706.73 937.30 706.29 936.43 704.88 C 935.56 703.47 935.99 701.62 937.40 700.75 C 942.22 697.77 944.69 691.85 945.56 684.85 C 946.42 677.94 945.61 670.72 944.60 666.23 C 944.23 664.61 945.25 663.00 946.87 662.64 Z" fill="#ffffff" fill-rule="nonzero" node-id="35" stroke="none" target-height="45.725037" target-width="463.5169" target-x="536.533" target-y="662.277"></path><path d="M 663.57 572.29 C 674.04 571.35 682.14 570.86 686.04 571.10 C 686.59 571.13 687.01 571.60 686.98 572.15 C 686.95 572.71 686.47 573.12 685.92 573.09 C 682.19 572.87 674.26 573.34 663.75 574.28 C 653.27 575.22 640.32 576.61 626.61 578.20 C 599.19 581.38 568.76 585.35 549.12 588.03 C 548.57 588.10 548.07 587.72 547.99 587.17 C 547.92 586.62 548.30 586.12 548.85 586.05 C 568.50 583.36 598.94 579.40 626.38 576.22 C 640.10 574.62 653.07 573.23 663.57 572.29 Z M 836.86 565.19 C 840.66 564.95 848.52 565.45 858.68 566.38 C 868.88 567.32 881.47 568.72 894.79 570.31 C 921.43 573.49 950.98 577.46 970.06 580.14 C 970.61 580.22 970.99 580.72 970.91 581.27 C 970.83 581.82 970.33 582.20 969.78 582.12 C 950.71 579.44 921.17 575.47 894.55 572.29 C 881.24 570.70 868.67 569.31 858.50 568.37 C 848.30 567.43 840.60 566.96 836.98 567.18 C 836.43 567.22 835.96 566.80 835.92 566.25 C 835.89 565.70 836.31 565.22 836.86 565.19 Z M 548.92 545.10 C 552.83 544.85 560.93 545.37 571.40 546.37 C 581.90 547.38 594.88 548.87 608.59 550.56 C 636.03 553.96 666.47 558.19 686.13 561.05 C 686.67 561.13 687.05 561.63 686.97 562.18 C 686.89 562.73 686.38 563.11 685.84 563.03 C 666.19 560.17 635.77 555.94 608.35 552.55 C 594.64 550.85 581.69 549.37 571.21 548.37 C 560.70 547.36 552.77 546.86 549.05 547.10 C 548.50 547.13 548.02 546.71 547.99 546.16 C 547.95 545.61 548.37 545.13 548.92 545.10 Z M 948.16 539.38 C 958.32 538.45 966.18 537.95 969.98 538.19 C 970.53 538.22 970.95 538.70 970.92 539.25 C 970.88 539.80 970.41 540.22 969.86 540.18 C 966.24 539.96 958.54 540.43 948.34 541.37 C 938.17 542.31 925.60 543.70 912.29 545.29 C 885.67 548.47 856.13 552.44 837.06 555.12 C 836.51 555.20 836.01 554.82 835.93 554.27 C 835.85 553.72 836.23 553.22 836.78 553.14 C 855.86 550.46 885.41 546.49 912.05 543.31 C 925.37 541.72 937.96 540.32 948.16 539.38 Z" fill="#ffffff" fill-rule="nonzero" node-id="37" stroke="none" target-height="50.149963" target-width="423.07104" target-x="547.917" target-y="537.952"></path><path d="M 811.91 489.52 C 816.35 468.75 839.12 456.01 855.35 459.48 C 878.21 464.36 885.26 492.73 880.82 513.50 C 876.38 534.27 854.76 538.01 839.27 534.70 C 814.20 529.34 807.47 510.30 811.91 489.52 Z M 639.33 490.69 C 642.67 469.31 665.10 455.06 681.80 457.67 C 705.32 461.34 714.10 489.78 710.77 511.16 C 707.43 532.53 685.66 537.56 669.72 535.07 C 643.92 531.05 636.00 512.06 639.33 490.69 Z" fill="#ffffff" fill-rule="nonzero" node-id="39" stroke="none" target-height="82.94797" target-width="249.25793" target-x="635.998" target-y="455.061"></path><path d="M 824.66 487.62 C 828.23 470.92 843.98 458.59 859.46 461.89 C 877.56 465.76 884.60 492.22 881.03 508.92 C 877.46 525.62 861.70 527.15 846.22 523.84 C 830.74 520.54 821.09 504.32 824.66 487.62 Z M 652.19 488.03 C 654.87 470.84 670.19 457.41 686.12 459.89 C 704.74 462.80 713.40 489.30 710.72 506.49 C 708.04 523.67 692.10 526.13 676.17 523.64 C 660.24 521.16 649.51 505.21 652.19 488.03 Z" fill="#fed43e" fill-rule="nonzero" node-id="41" stroke="none" target-height="69.74005" target-width="235.08899" target-x="649.507" target-y="457.40997"></path><path d="M 869.05 477.89 C 871.89 477.25 875.37 481.88 876.82 488.24 C 878.27 494.60 877.14 500.29 874.30 500.94 C 871.45 501.58 867.97 496.95 866.52 490.59 C 865.07 484.23 866.20 478.54 869.05 477.89 Z M 697.69 475.84 C 700.59 475.18 704.11 479.80 705.56 486.15 C 707.00 492.50 705.83 498.19 702.94 498.85 C 700.04 499.51 696.52 494.89 695.07 488.54 C 693.62 482.19 694.80 476.50 697.69 475.84 Z" fill="#000000" fill-rule="nonzero" node-id="43" stroke="none" target-height="26.398987" target-width="184.64398" target-x="693.624" target-y="475.183"></path><path d="M 785.66 526.42 C 785.66 531.53 776.41 531.65 765.01 531.65 C 753.61 531.65 744.36 531.53 744.36 526.42 C 744.36 521.31 753.61 513.14 765.01 513.14 C 776.41 513.14 785.66 521.31 785.66 526.42 Z" fill="#ffcfc2" fill-rule="nonzero" node-id="45" stroke="none" target-height="18.511047" target-width="41.294983" target-x="744.364" target-y="513.139"></path></svg>