<svg width="420" height="128" viewBox="0 0 420 128" fill="none" xmlns="http://www.w3.org/2000/svg">
  <!-- Icon -->
  <rect width="128" height="128" rx="28" fill="#462584"/>
  <g transform="translate(24, 24) scale(3.333)" stroke="white" stroke-width="2" stroke-linecap="round" stroke-linejoin="round" fill="none">
    <path d="m12 3-1.912 5.813a2 2 0 0 1-1.275 1.275L3 12l5.813 1.912a2 2 0 0 1 1.275 1.275L12 21l1.912-5.813a2 2 0 0 1 1.275-1.275L21 12l-5.813-1.912a2 2 0 0 1-1.275-1.275L12 3Z"/>
    <path d="M5 3v4"/>
    <path d="M19 17v4"/>
    <path d="M3 5h4"/>
    <path d="M17 19h4"/>
  </g>
  <!-- Text "XBot" -->
  <text x="152" y="82" font-family="system-ui, -apple-system, 'Segoe UI', sans-serif" font-size="64" font-weight="600" fill="#1a1a2e" letter-spacing="-1">XBot</text>
</svg>
